HIERARCHY
ROOT root
{
	OFFSET	0	13.1	24.9
	CHANNELS 6  Xposition Yposition Zposition Xrotation Yrotation Zrotation
	JOINT spine_1
	{
		OFFSET	0	9.99999	0
		CHANNELS 3  Xrotation Yrotation Zrotation
		JOINT spine_2
		{
			OFFSET	0	112	-10
			CHANNELS 3  Xrotation Yrotation Zrotation
			JOINT spine_3
			{
				OFFSET	0	206.5	19.3
				CHANNELS 3  Xrotation Yrotation Zrotation
				JOINT spine_4
				{
					OFFSET	0	110.4	14.6
					CHANNELS 3  Xrotation Yrotation Zrotation
					JOINT neck_1
					{
						OFFSET	0	71.8	-50.3
						CHANNELS 3  Xrotation Yrotation Zrotation
						JOINT neck_2
						{
							OFFSET	0	86.2	-25.8
							CHANNELS 3  Xrotation Yrotation Zrotation
							JOINT head_ee
							{
								OFFSET	0	179.8	-8.7
								CHANNELS 3  Xrotation Yrotation Zrotation
								End Site
								{
									OFFSET	1	0	0
								}
							}
						}
					}
					JOINT left_clavicle
					{
						OFFSET	-43.2	22.4	-70.8
						CHANNELS 3  Xrotation Yrotation Zrotation
						JOINT left_shoulder
						{
							OFFSET	-93.9	-5.79999	48.7
							CHANNELS 3  Xrotation Yrotation Zrotation
							JOINT left_elbow
							{
								OFFSET	-291.4	-30.8	15.2
								CHANNELS 3  Xrotation Yrotation Zrotation
								JOINT left_lowarm_twist
								{
									OFFSET	-110.7	-3.89999	13.6
									CHANNELS 3  Xrotation Yrotation Zrotation
									JOINT left_hand
									{
										OFFSET	-110.7	-3.89999	13.6
										CHANNELS 3  Xrotation Yrotation Zrotation
										JOINT left_ee
										{
											OFFSET	-80.8	-5.10001	12.1
											CHANNELS 3  Xrotation Yrotation Zrotation
											End Site
											{
												OFFSET	1	0	0
											}
										}
									}
								}
							}
						}
					}
					JOINT right_clavicle
					{
						OFFSET	43.2	22.4	-70.8
						CHANNELS 3  Xrotation Yrotation Zrotation
						JOINT right_shoulder
						{
							OFFSET	93.9	-5.79999	48.7
							CHANNELS 3  Xrotation Yrotation Zrotation
							JOINT right_elbow
							{
								OFFSET	291.4	-30.8	15.2
								CHANNELS 3  Xrotation Yrotation Zrotation
								JOINT right_lowarm_twist
								{
									OFFSET	110.7	-3.89999	13.6
									CHANNELS 3  Xrotation Yrotation Zrotation
									JOINT right_hand
									{
										OFFSET	110.7	-3.89999	13.6
										CHANNELS 3  Xrotation Yrotation Zrotation
										JOINT right_ee
										{
											OFFSET	80.8	-5.10001	12.1
											CHANNELS 3  Xrotation Yrotation Zrotation
											End Site
											{
												OFFSET	1	0	0
											}
										}
									}
								}
							}
						}
					}
				}
			}
		}
	}
	JOINT left_hip
	{
		OFFSET	-82.8	-127.5	0.300001
		CHANNELS 3  Xrotation Yrotation Zrotation
		JOINT left_knee
		{
			OFFSET	-28.2	-396.7	2.2
			CHANNELS 3  Xrotation Yrotation Zrotation
			JOINT left_ankle
			{
				OFFSET	-11.7	-411.3	35.4
				CHANNELS 3  Xrotation Yrotation Zrotation
				JOINT left_toes
				{
					OFFSET	0	-60	-88.6
					CHANNELS 3  Xrotation Yrotation Zrotation
					JOINT left_foot_ee
					{
						OFFSET	-22.5	-16.5	-42.2
						CHANNELS 3  Xrotation Yrotation Zrotation
						End Site
						{
							OFFSET	1	0	0
						}
					}
				}
			}
		}
	}
	JOINT right_hip
	{
		OFFSET	82.8	-127.5	0.300001
		CHANNELS 3  Xrotation Yrotation Zrotation
		JOINT right_knee
		{
			OFFSET	28.2	-396.7	2.2
			CHANNELS 3  Xrotation Yrotation Zrotation
			JOINT right_ankle
			{
				OFFSET	11.7	-411.3	35.4
				CHANNELS 3  Xrotation Yrotation Zrotation
				JOINT right_toes
				{
					OFFSET	0	-60	-88.6
					CHANNELS 3  Xrotation Yrotation Zrotation
					JOINT right_foot_ee
					{
						OFFSET	22.5	-16.5	-42.2
						CHANNELS 3  Xrotation Yrotation Zrotation
						End Site
						{
							OFFSET	1	0	0
						}
					}
				}
			}
		}
	}
}
MOTION
Frames: 5
Frame Time: 0.02
493.086044926 728.522 -1156.87031668 -156.896904487 -72.4497433326 -154.410039223 0.985386 -0.124176 -2.15463 0.987969 0.0131486 -2.15817 0.98797 0.430246 -2.11491 0.98174 0.0909179 -2.15629 -4.20582 -3.47541 0.944909 -4.18575 -7.08085 0.409249 -0.0 0.0 -0.0 13.7001 -25.9908 27.3032 -8.1393 -10.1847 58.1199 0.698548 -19.0877 0.117448 13.8404 0.278475 -1.74177 8.05983 -24.6138 45.8321 -0.0 0.0 -0.0 6.21409 -11.3998 -11.9442 -16.1045 5.33663 -58.5103 2.143 46.705 -0.925338 -68.0812 6.30142 -5.28091 1.47246 2.62347 -8.81666 0.0 0.0 0.0 8.31938 -11.8162 -0.799078 1.26086 -0.0539707 -0.185951 36.0666 -26.1732 -5.27815 40.1488 -0.0 -0.0 -0.0 0.0 -0.0 30.3703 -29.9085 8.04374 -44.299 0.762667 -6.58934 38.4573 -23.7282 4.97892 -36.5216 0.0 0.0 0.0 0.0 0.0 
499.6803048 724.256 -1150.82883139 -160.193129113 -69.3092916024 -157.368613281 1.03699 -0.170058 -2.16608 1.0396 -0.0319128 -2.17251 1.04131 0.386789 -2.13805 1.03494 0.0443529 -2.17229 -3.42035 -3.41209 0.674015 -3.39997 -6.73722 0.184111 -0.0 0.0 -0.0 13.7792 -26.1897 27.4636 -7.06325 -9.69135 57.1106 0.740269 -20.1383 0.131453 12.0107 0.265929 -1.50842 8.62528 -25.1403 50.4011 -0.0 0.0 -0.0 6.1052 -13.68 -11.6843 -19.1734 10.3924 -57.22 2.17957 47.1885 -0.952064 -65.1537 5.92976 -5.2325 1.40626 2.65462 -8.35402 0.0 0.0 0.0 7.03837 -13.8212 -1.15881 1.54473 -0.0666862 -0.227654 36.635 -25.009 -5.27298 40.1534 -0.0 -0.0 -0.0 0.0 -0.0 29.8445 -26.7807 6.2244 -43.937 0.736043 -6.54043 41.9495 -20.8799 5.22711 -36.2066 0.0 0.0 0.0 0.0 0.0 
503.029465321 724.194 -1144.136807 -160.806158958 -67.1274647633 -157.18766145 1.09679 -0.282075 -2.16349 1.09938 -0.143868 -2.17704 1.1054 0.275301 -2.16436 1.09887 -0.0698898 -2.18067 -3.07766 -3.37164 0.195897 -3.06077 -6.28209 -0.288573 -0.0 0.0 -0.0 13.7814 -26.4333 27.4383 -6.08376 -9.65677 55.9087 0.852265 -22.8886 0.172536 10.3197 0.247713 -1.29319 9.08196 -25.1427 54.8512 -0.0 0.0 -0.0 5.77702 -15.7576 -11.0692 -22.6154 15.2285 -54.341 2.15029 46.8021 -0.930648 -59.7686 5.25398 -5.09392 1.42252 3.7705 -8.00289 0.0 0.0 0.0 5.17036 -13.7393 -0.940793 1.95431 -0.0853969 -0.287712 38.1592 -27.1465 -5.54805 39.5039 -0.0 -0.0 -0.0 0.0 -0.0 29.0314 -21.7846 3.08898 -37.5004 0.31545 -5.64516 42.9166 -24.0774 5.40768 -37.0579 0.0 0.0 0.0 0.0 0.0 
514.418958637 723.287 -1135.22972361 -163.190518541 -64.4975082752 -159.661767086 1.04201 -0.23924 -2.10462 1.04447 -0.104863 -2.11557 1.04887 0.303911 -2.09626 1.04274 -0.0308907 -2.11794 -2.92346 -3.21886 -0.286159 -2.91052 -5.6231 -0.761142 -0.0 0.0 -0.0 13.4084 -26.1018 26.611 -6.09459 -9.97539 55.5243 1.08998 -28.3658 0.27547 9.20298 0.232205 -1.1514 9.29841 -24.5115 57.9458 -0.0 0.0 -0.0 5.85723 -16.5106 -11.1714 -23.1914 15.4823 -53.6396 2.03713 45.2552 -0.849202 -58.2738 5.06888 -5.0442 1.38195 3.80473 -7.71304 0.0 0.0 0.0 4.84362 -13.7313 -1.32212 3.03487 -0.136821 -0.44552 37.4465 -28.4194 -5.55551 38.3575 -0.0 -0.0 -0.0 0.0 -0.0 28.4887 -20.3658 1.1417 -29.2557 -0.0718546 -4.44059 42.0846 -26.2604 5.40845 -38.2075 0.0 0.0 0.0 0.0 0.0 
530.517569979 725.144 -1125.23970265 -163.494706435 -62.7327029207 -159.78024103 1.22356 -0.587285 -2.15316 1.22603 -0.449118 -2.18615 1.24384 -0.0281894 -2.2316 1.2371 -0.380189 -2.19917 -1.98027 -3.28574 -0.697639 -1.9659 -5.37963 -1.16505 -0.0 0.0 -0.0 13.8718 -26.7242 27.6122 -5.8472 -7.46506 52.338 1.30125 -32.8044 0.383048 6.19023 0.176609 -0.770611 8.94845 -23.7041 55.2395 -0.0 0.0 -0.0 5.71167 -16.4316 -10.9404 -24.1613 15.8152 -55.7251 1.57546 37.967 -0.541998 -58.2743 5.06895 -5.04422 1.45587 7.5404 -6.64288 0.0 0.0 0.0 4.13212 -12.6842 -1.89592 -0.458868 0.0186223 0.0679557 38.5427 -26.266 -5.53341 40.3466 -0.0 -0.0 -0.0 0.0 -0.0 31.9718 -14.231 2.14183 -33.2826 0.0955984 -5.03574 37.8748 -26.7385 5.01556 -40.1311 0.0 0.0 0.0 0.0 0.0 
